HIERARCHY
ROOT joint_Root
{
	OFFSET 0.0 0.0 0.0
	CHANNELS 6 Xposition Yposition Zposition Zrotation Xrotation Yrotation 
	JOINT Hips
	{
		OFFSET 4.5925 91.4895 -427.239
		CHANNELS 6 Xposition Yposition Zposition Zrotation Xrotation Yrotation 
		JOINT Spine
		{
			OFFSET 15.7357 0.0 0.0
			CHANNELS 6 Xposition Yposition Zposition Zrotation Xrotation Yrotation 
			JOINT Chest
			{
				OFFSET 8.98455 -0.406207 0.0
				CHANNELS 6 Xposition Yposition Zposition Zrotation Xrotation Yrotation 
				JOINT Neck
				{
					OFFSET 16.3773 0.0 0.0
					CHANNELS 6 Xposition Yposition Zposition Zrotation Xrotation Yrotation 
					JOINT Head
					{
						OFFSET 6.45672 0.0 0.0
						CHANNELS 6 Xposition Yposition Zposition Zrotation Xrotation Yrotation 
						End Site
						{
							OFFSET 0.0 0.0 0.0
						}
					}
				}
				JOINT Shoulder_L
				{
					OFFSET 12.9942 -0.242716 4.98039
					CHANNELS 6 Xposition Yposition Zposition Zrotation Xrotation Yrotation 
					JOINT UpperArm_L
					{
						OFFSET 5.34809 0.0 0.0
						CHANNELS 6 Xposition Yposition Zposition Zrotation Xrotation Yrotation 
						JOINT LowerArm_L
						{
							OFFSET 24.3286 1.87007e-05 0.0
							CHANNELS 6 Xposition Yposition Zposition Zrotation Xrotation Yrotation 
							JOINT Hand_L
							{
								OFFSET 22.2916 0.0 0.0
								CHANNELS 6 Xposition Yposition Zposition Zrotation Xrotation Yrotation 
								End Site
								{
									OFFSET 0.0 0.0 0.0
								}
							}
						}
					}
				}
				JOINT Shoulder_R
				{
					OFFSET 12.9945 -0.242716 -4.98039
					CHANNELS 6 Xposition Yposition Zposition Zrotation Xrotation Yrotation 
					JOINT UpperArm_R
					{
						OFFSET -5.34813 0.0 0.0
						CHANNELS 6 Xposition Yposition Zposition Zrotation Xrotation Yrotation 
						JOINT LowerArm_R
						{
							OFFSET -24.3289 0.000322201 0.0
							CHANNELS 6 Xposition Yposition Zposition Zrotation Xrotation Yrotation 
							JOINT Hand_R
							{
								OFFSET -22.2915 -0.000108084 0.0
								CHANNELS 6 Xposition Yposition Zposition Zrotation Xrotation Yrotation 
								End Site
								{
									OFFSET 0.0 0.0 0.0
								}
							}
						}
					}
				}
			}
		}
		JOINT UpperLeg_L
		{
			OFFSET -2.19248 -6.46944 0.0
			CHANNELS 6 Xposition Yposition Zposition Zrotation Xrotation Yrotation 
			JOINT LowerLeg_L
			{
				OFFSET 39.0811 0.0 -1.23785e-05
				CHANNELS 6 Xposition Yposition Zposition Zrotation Xrotation Yrotation 
				JOINT Foot_L
				{
					OFFSET 40.9854 0.0 -1.26872e-05
					CHANNELS 6 Xposition Yposition Zposition Zrotation Xrotation Yrotation 
					JOINT Toes_L
					{
						OFFSET 11.7543 0.0 0.0
						CHANNELS 6 Xposition Yposition Zposition Zrotation Xrotation Yrotation 
						End Site
						{
							OFFSET 0.0 0.0 0.0
						}
					}
				}
			}
		}
		JOINT UpperLeg_R
		{
			OFFSET -2.19251 6.46944 0.0
			CHANNELS 6 Xposition Yposition Zposition Zrotation Xrotation Yrotation 
			JOINT LowerLeg_R
			{
				OFFSET -39.0811 -0.00228153 -0.0401928
				CHANNELS 6 Xposition Yposition Zposition Zrotation Xrotation Yrotation 
				JOINT Foot_R
				{
					OFFSET -40.9854 0.0 0.0
					CHANNELS 6 Xposition Yposition Zposition Zrotation Xrotation Yrotation 
					JOINT Toes_R
					{
						OFFSET -11.7543 0.0 0.0
						CHANNELS 6 Xposition Yposition Zposition Zrotation Xrotation Yrotation 
						End Site
						{
							OFFSET 0.0 0.0 0.0
						}
					}
				}
			}
		}
	}
}
MOTION
Frames:	6
Frame Time:	0.0333333
0.000000 0.000000 0.000000 0.000000 0.000000 -0.000000 1.025250 79.079900 -1.593090 90.993200 2.164720 13.585600 15.735700 0.000005 -0.000001 101.506000 78.098400 -102.533000 8.984550 -0.406207 -0.000000 15.638100 4.610740 -2.690600 16.377300 -0.000001 -0.000001 -2.847160 -8.946760 2.567370 6.456720 -0.000001 -0.000000 -8.680590 -15.610300 6.101180 12.994200 -0.242716 4.980390 -92.753700 6.723020 -67.665100 5.348090 -0.000007 -0.000001 -71.393900 8.907830 6.248870 24.328600 0.000019 0.000005 1.673150 3.761230 -23.991600 22.291600 -0.000001 0.000005 20.871000 5.225120 2.079340 12.994500 -0.242716 -4.980390 88.728700 8.199070 -81.154900 -5.348130 -0.000001 -0.000004 -60.321500 28.996500 -12.202600 -24.328900 0.000322 -0.000009 -0.757676 -1.387880 -28.600000 -22.291500 -0.000108 -0.000004 17.152000 5.422300 -3.676670 -2.192480 -6.469440 -0.000000 -174.290000 -19.772000 -17.197200 39.081100 -0.000007 -0.000012 0.198281 -0.071145 70.260000 40.985400 -0.000006 -0.000013 10.502200 14.397800 -90.105000 11.754300 -0.000000 0.000003 -0.000020 -0.000250 -16.587300 -2.192510 6.469440 -0.000001 172.718000 14.700400 162.281000 -39.081100 -0.002282 -0.040193 0.147141 -0.048661 71.334400 -40.985400 0.000008 0.000006 4.142600 1.485840 -88.502300 -11.754300 -0.000006 -0.000006 -0.834887 -1.028940 -17.050800
0.000000 0.000000 0.000000 0.000000 0.000000 -0.000000 1.773980 80.686000 -1.622370 91.428200 -1.727500 12.760000 15.735700 0.000005 -0.000001 100.732000 78.634000 -101.174000 8.984550 -0.406207 -0.000000 14.612300 4.154120 -1.417160 16.377300 -0.000001 -0.000001 -3.130440 -7.616600 2.529980 6.456720 -0.000001 -0.000000 -8.471320 -12.885100 4.143570 12.994200 -0.242716 4.980390 -92.300400 5.594490 -67.604800 5.348090 -0.000007 -0.000001 -71.448900 5.484010 6.446810 24.328600 0.000019 0.000005 0.894553 2.178030 -22.387700 22.291600 -0.000001 0.000005 21.092300 5.193470 2.886200 12.994500 -0.242716 -4.980390 88.709800 8.146000 -80.968600 -5.348130 -0.000001 -0.000004 -60.014300 28.217700 -13.234100 -24.328900 0.000322 -0.000009 -0.511343 -0.929509 -28.767400 -22.291500 -0.000108 -0.000004 17.262100 5.427180 -3.842690 -2.192480 -6.469440 -0.000000 -175.333000 -21.466200 -15.532600 39.081100 -0.000007 -0.000012 0.101455 -0.045213 65.977300 40.985400 -0.000006 -0.000013 9.182550 12.444600 -88.039700 11.754300 -0.000000 0.000003 -0.000033 -0.000392 -16.592800 -2.192510 6.469440 -0.000001 172.547000 12.293900 162.519000 -39.081100 -0.002282 -0.040193 0.110772 -0.044727 67.434100 -40.985400 0.000008 0.000006 4.381050 3.240330 -86.185700 -11.754300 -0.000006 -0.000006 -0.684806 -0.841933 -17.058200
0.000000 0.000000 0.000000 0.000000 0.000000 -0.000000 2.436330 83.139600 -1.592990 91.697600 -5.215810 11.516500 15.735700 0.000005 -0.000001 99.981500 79.550000 -99.531000 8.984550 -0.406207 -0.000000 12.821800 3.606820 0.495909 16.377300 -0.000001 -0.000001 -2.325970 -5.914020 1.665700 6.456720 -0.000001 -0.000000 -8.125210 -9.740120 0.817853 12.994200 -0.242716 4.980390 -91.636600 3.938610 -67.413600 5.348090 -0.000007 -0.000001 -66.951200 -0.035108 2.585550 24.328600 0.000019 0.000005 4.673030 12.130700 -21.254300 22.291600 -0.000001 0.000005 18.522200 5.162740 3.644540 12.994500 -0.242716 -4.980390 88.694300 7.734040 -80.387000 -5.348130 -0.000001 -0.000004 -60.616500 27.371900 -12.630200 -24.328900 0.000322 -0.000009 -0.449272 -0.796256 -29.375800 -22.291500 -0.000108 -0.000004 17.424500 5.422320 -3.677810 -2.192480 -6.469440 -0.000000 -176.465000 -22.748200 -13.219300 39.081100 -0.000007 -0.000012 0.009297 -0.005565 59.072000 40.985400 -0.000006 -0.000013 7.727170 10.736700 -84.631300 11.754300 -0.000000 0.000003 -0.000038 -0.000449 -16.595100 -2.192510 6.469440 -0.000001 172.372000 11.080600 163.742000 -39.081100 -0.002282 -0.040193 0.078178 -0.041690 60.926100 -40.985400 0.000008 0.000006 4.692570 5.693790 -82.583300 -11.754300 -0.000006 -0.000006 -0.381248 -0.470706 -17.287300
0.000000 0.000000 0.000000 0.000000 0.000000 -0.000000 2.832840 85.885900 -1.476200 91.628500 -8.065250 9.747820 15.735700 0.000005 -0.000001 99.762300 80.845900 -98.251000 8.984550 -0.406207 -0.000000 10.248600 3.116560 2.741540 16.377300 -0.000001 -0.000001 -0.245709 -4.312350 0.514336 6.456720 -0.000001 -0.000000 -7.323400 -6.567390 -3.438180 12.994200 -0.242716 4.980390 -90.936400 2.261090 -67.497600 5.348090 -0.000007 -0.000001 -59.304100 -12.367100 -3.213220 24.328600 0.000019 0.000005 4.504560 10.336800 -23.732600 22.291600 -0.000001 0.000005 19.121100 5.114090 4.788000 12.994500 -0.242716 -4.980390 88.681000 7.139410 -79.503800 -5.348130 -0.000001 -0.000004 -61.351700 26.994400 -10.800200 -24.328900 0.000322 -0.000009 -0.445253 -0.774397 -29.836900 -22.291500 -0.000108 -0.000004 16.650400 5.427410 -3.852380 -2.192480 -6.469440 -0.000000 -177.385000 -23.510600 -10.695300 39.081100 -0.000007 -0.000012 -0.047812 0.039411 50.504500 40.985400 -0.000006 -0.000013 6.269670 9.361020 -80.400100 11.754300 -0.000000 0.000003 -0.000026 -0.000314 -16.589800 -2.192510 6.469440 -0.000001 172.574000 11.046600 165.524000 -39.081100 -0.002282 -0.040193 0.050891 -0.036266 52.727800 -40.985400 0.000008 0.000006 4.682050 8.531020 -78.063700 -11.754300 -0.000006 -0.000006 -0.002205 -0.031249 -17.843800
0.000000 0.000000 0.000000 0.000000 0.000000 -0.000000 2.989790 88.255600 -1.361630 91.303200 -9.699660 7.888390 15.735700 0.000005 -0.000001 99.599900 82.217500 -97.248600 8.984550 -0.406207 -0.000000 7.538050 2.581000 4.528110 16.377300 -0.000001 -0.000001 2.423040 -3.123520 -0.079690 6.456720 -0.000001 -0.000000 -5.999630 -4.303600 -6.309430 12.994200 -0.242716 4.980390 -90.259900 0.625917 -67.451700 5.348090 -0.000007 -0.000001 -51.055200 -25.032100 -13.099200 24.328600 0.000019 0.000005 2.982750 5.225920 -29.757500 22.291600 -0.000001 0.000005 22.954700 5.177490 3.296260 12.994500 -0.242716 -4.980390 88.635400 6.690710 -78.444100 -5.348130 -0.000001 -0.000004 -61.944000 26.768300 -8.145300 -24.328900 0.000322 -0.000009 -0.539871 -0.924127 -30.244900 -22.291500 -0.000108 -0.000004 15.044300 5.429500 -3.923270 -2.192480 -6.469440 -0.000000 -178.087000 -23.237200 -8.386070 39.081100 -0.000007 -0.000012 -0.068721 0.076350 41.990700 40.985400 -0.000006 -0.000013 5.011850 8.236300 -76.121800 11.754300 -0.000000 0.000003 -0.000015 -0.000190 -16.585000 -2.192510 6.469440 -0.000001 172.773000 13.358900 167.712000 -39.081100 -0.002282 -0.040193 0.033117 -0.030533 44.352600 -40.985400 0.000008 0.000006 4.455590 12.344400 -73.669200 -11.754300 -0.000006 -0.000006 -0.003701 -0.048292 -18.537300
0.000000 0.000000 0.000000 0.000000 0.000000 -0.000000 2.850270 89.863300 -1.298790 90.730900 -10.295600 6.481060 15.735700 0.000005 -0.000001 100.003000 83.280200 -97.241900 8.984550 -0.406207 -0.000000 5.423700 2.272850 5.409170 16.377300 -0.000001 -0.000001 4.353390 -2.884060 0.114559 6.456720 -0.000001 -0.000000 -4.474890 -3.377690 -6.873990 12.994200 -0.242716 4.980390 -89.374200 -1.592670 -68.513600 5.348090 -0.000007 -0.000001 -44.256500 -36.851600 -27.168600 24.328600 0.000019 0.000005 5.321670 6.675130 -38.682700 22.291600 -0.000001 0.000005 24.648200 5.265990 1.013360 12.994500 -0.242716 -4.980390 88.544300 6.659410 -77.639700 -5.348130 -0.000001 -0.000004 -62.355400 26.179500 -4.949710 -24.328900 0.000322 -0.000009 -0.934640 -1.589180 -30.441000 -22.291500 -0.000108 -0.000004 14.188700 5.431910 -4.004480 -2.192480 -6.469440 -0.000000 -178.182000 -21.962900 -6.483950 39.081100 -0.000007 -0.000012 -0.074269 0.104752 35.337200 40.985400 -0.000006 -0.000013 3.938430 7.247230 -72.724300 11.754300 -0.000000 0.000003 -0.000008 -0.000110 -16.581800 -2.192510 6.469440 -0.000001 173.246000 16.847400 170.034000 -39.081100 -0.002282 -0.040193 0.021284 -0.023545 37.395800 -40.985400 0.000008 0.000006 4.746550 16.148200 -70.602000 -11.754300 -0.000006 -0.000006 -0.004886 -0.060357 -19.028800
